<svg clip-rule="evenodd" fill-rule="evenodd" stroke-linejoin="round" stroke-miterlimit="2" viewBox="0 0 32 32" xmlns="http://www.w3.org/2000/svg"><path d="m24.887 17.427c-.685 4.29-4.405 7.573-8.887 7.573-4.967 0-9-4.033-9-9 0-4.482 3.283-8.202 7.573-8.887.465-.074.941-.113 1.427-.113 4.967 0 9 4.033 9 9 0 .486-.039.962-.113 1.427zm-12.86-7.19c-1.828 1.264-3.027 3.375-3.027 5.763 0 3.863 3.137 7 7 7 2.388 0 4.498-1.198 5.761-3.025-.854.339-1.786.525-2.761.525-4.139 0-7.5-3.361-7.5-7.5 0-.975.186-1.906.527-2.763zm2.973-7.237c0-.552.448-1 1-1s1 .448 1 1v2c0 .552-.448 1-1 1s-1-.448-1-1zm9.485 3.101c.391-.391 1.024-.391 1.414 0 .391.39.391 1.023 0 1.414l-1.414 1.414c-.39.39-1.024.39-1.414 0s-.39-1.024 0-1.414zm4.515 8.899c.552 0 1 .448 1 1s-.448 1-1 1h-2c-.552 0-1-.448-1-1s.448-1 1-1zm-3.101 9.485c.391.391.391 1.024 0 1.414-.39.391-1.023.391-1.414 0l-1.414-1.414c-.39-.39-.39-1.024 0-1.414s1.024-.39 1.414 0zm-8.899 4.515c0 .552-.448 1-1 1s-1-.448-1-1v-2c0-.552.448-1 1-1s1 .448 1 1zm-9.485-3.101c-.391.391-1.024.391-1.414 0-.391-.39-.391-1.023 0-1.414l1.414-1.414c.39-.39 1.024-.39 1.414 0s.39 1.024 0 1.414zm-4.515-8.899c-.552 0-1-.448-1-1s.448-1 1-1h2c.552 0 1 .448 1 1s-.448 1-1 1zm3.101-9.485c-.391-.391-.391-1.024 0-1.414.39-.391 1.023-.391 1.414 0l1.414 1.414c.39.39.39 1.024 0 1.414s-1.024.39-1.414 0z"/></svg>