<svg clip-rule="evenodd" fill-rule="evenodd" height="512" image-rendering="optimizeQuality" shape-rendering="geometricPrecision" text-rendering="geometricPrecision" viewBox="0 0 850 850" width="512" xmlns="http://www.w3.org/2000/svg"><g id="Layer_x0020_1"><circle cx="425" cy="425" r="425"/><g id="_326663064"><g><g><path d="m511 444c-61 0-110-49-110-110 0-60 49-110 110-110 60 0 110 50 110 110 0 61-50 110-110 110zm0-205c-53 0-96 43-96 95 0 53 43 96 96 96s95-43 95-96c0-52-43-95-95-95z" fill="#fff"/></g><g><path d="m511 203c-4 0-8-3-8-7v-19c0-5 4-8 8-8s7 3 7 8v19c0 4-4 7-7 7z" fill="#fff"/></g><g><path d="m609 244c-2 0-4-1-5-2-3-3-3-8 0-11l13-13c3-3 8-3 11 0s3 7 0 10l-14 14c-1 1-3 2-5 2z" fill="#fff"/></g><g><path d="m669 342h-20c-4 0-7-4-7-8s3-7 7-7h20c4 0 7 3 7 7s-3 8-7 8z" fill="#fff"/></g><g><path d="m622 453c-1 0-4-1-5-2l-13-13c-3-3-3-8 0-11 3-2 7-2 10 0l14 14c3 3 3 7 0 10-2 1-4 2-6 2z" fill="#fff"/></g><g><path d="m511 500c-4 0-8-3-8-8v-19c0-4 4-8 8-8s7 4 7 8v19c0 5-4 8-7 8z" fill="#fff"/></g><g><path d="m399 453c-2 0-4-1-6-2-3-3-3-7 0-10l14-14c3-2 8-2 11 0 2 3 2 8 0 11l-14 13c-1 1-3 2-5 2z" fill="#fff"/></g><g><path d="m372 342h-19c-5 0-8-4-8-8s3-7 8-7h19c4 0 8 3 8 7s-4 8-8 8z" fill="#fff"/></g><g><path d="m413 244c-2 0-4-1-5-2l-14-14c-3-3-3-7 0-10s7-3 10 0l14 13c3 3 3 8 0 11-2 1-3 2-5 2z" fill="#fff"/></g><g><path d="m378 681c-113 0-204-92-204-204 0-69 34-132 92-170 3-2 6-2 9 1 2 2 3 6 1 9-21 31-32 67-32 104 0 104 85 189 190 189 37 0 73-11 104-31 3-2 6-2 9 1 2 2 3 6 1 9-38 58-102 92-170 92zm-132-340c-37 35-58 84-58 136 0 104 85 189 189 189 52 0 101-21 137-58-26 11-53 17-81 17-112 0-204-91-204-204 1-28 6-55 17-80z" fill="#fff"/></g><g><path d="m511 413c-44 0-79-35-79-79 0-4 3-7 8-7 4 0 7 3 7 7 0 36 29 64 64 64 4 0 8 4 8 8s-5 7-8 7z" fill="#fff"/></g></g></g></g></svg>