<svg width="494" height="312" viewBox="0 0 494 312" fill="none" xmlns="http://www.w3.org/2000/svg">
<path d="M0 8C0 3.58172 3.58172 0 8 0H494V312H8.00001C3.58173 312 0 308.418 0 304V8Z" fill="white"/>
<path d="M337.73 194.215H410.925V250.668H337.73V194.215Z" fill="#EBEBEB"/>
<path d="M356.067 250.266C356.15 250.266 356.217 237.687 356.217 222.165C356.217 206.644 356.15 194.059 356.067 194.059C355.983 194.059 355.922 206.644 355.922 222.165C355.922 237.687 355.989 250.266 356.067 250.266Z" fill="white"/>
<path d="M343.934 237.815H349.546V244.158H343.934V237.815Z" fill="#FAFAFA"/>
<path d="M380.276 194.36H388.592V206.404H380.276V194.36Z" fill="white"/>
<path d="M380.276 238.451H388.592V250.495H380.276V238.451Z" fill="white"/>
<path d="M326.282 137.891H399.477V194.343H326.282V137.891Z" fill="#EBEBEB"/>
<path d="M344.624 193.942C344.702 193.942 344.769 181.363 344.769 165.841C344.769 150.32 344.702 137.741 344.624 137.741C344.546 137.741 344.479 150.32 344.479 165.841C344.479 181.363 344.541 193.942 344.624 193.942Z" fill="white"/>
<path d="M332.491 181.492H338.103V187.834H332.491V181.492Z" fill="#FAFAFA"/>
<path d="M368.835 138.036H377.151V150.08H368.835V138.036Z" fill="white"/>
<path d="M368.835 182.132H377.151V194.176H368.835V182.132Z" fill="white"/>
<path d="M331.315 92.647H390.17V138.036H331.315V92.647Z" fill="#F5F5F5"/>
<path d="M346.062 137.719C346.123 137.719 346.179 127.597 346.179 115.119C346.179 102.64 346.123 92.5244 346.062 92.5244C346.001 92.5244 345.945 102.64 345.945 115.119C345.945 127.597 345.995 137.719 346.062 137.719Z" fill="white"/>
<path d="M336.303 127.703H340.818V132.803H336.303V127.703Z" fill="#FAFAFA"/>
<path d="M365.53 92.7642H372.212V102.451H365.53V92.7642Z" fill="white"/>
<path d="M365.53 128.216H372.212V137.902H365.53V128.216Z" fill="white"/>
<path d="M68.5995 124.159H123.881V166.795H68.5995V124.159Z" fill="#F5F5F5"/>
<path d="M82.4488 166.499C82.5101 166.499 82.5603 156.991 82.5603 145.27C82.5603 133.549 82.5101 124.047 82.4488 124.047C82.3875 124.047 82.3429 133.549 82.3429 145.27C82.3429 156.991 82.3875 166.499 82.4488 166.499Z" fill="white"/>
<path d="M73.2919 157.091H77.5276V161.884H73.2919V157.091Z" fill="#FAFAFA"/>
<path d="M100.735 124.27H107.017V133.366H100.735V124.27Z" fill="white"/>
<path d="M100.735 157.576H107.017V166.672H100.735V157.576Z" fill="white"/>
<path d="M50.0735 215.817H113.788V264.963H50.0735V215.817Z" fill="#EBEBEB"/>
<path d="M66.0131 264.612C66.08 264.612 66.1357 253.661 66.1357 240.151C66.1357 226.641 66.08 215.684 66.0131 215.684C65.9463 215.684 65.885 226.636 65.885 240.151C65.885 253.666 65.963 264.612 66.0131 264.612Z" fill="white"/>
<path d="M55.4745 253.772H60.3567V259.295H55.4745V253.772Z" fill="#FAFAFA"/>
<path d="M87.1084 215.94H94.3481V226.423H87.1084V215.94Z" fill="white"/>
<path d="M87.1084 254.329H94.3481V264.813H87.1084V254.329Z" fill="white"/>
<path d="M58.8745 166.8H122.589V215.946H58.8745V166.8Z" fill="#EBEBEB"/>
<path d="M74.8359 215.595C74.9084 215.595 74.9641 204.643 74.9641 191.133C74.9641 177.624 74.9084 166.667 74.8359 166.667C74.7635 166.667 74.7077 177.618 74.7077 191.133C74.7077 204.649 74.7635 215.595 74.8359 215.595Z" fill="white"/>
<path d="M64.2745 204.754H69.1567V210.278H64.2745V204.754Z" fill="#FAFAFA"/>
<path d="M95.9092 166.923H103.149V177.406H95.9092V166.923Z" fill="white"/>
<path d="M95.9092 205.312H103.149V215.795H95.9092V205.312Z" fill="white"/>
<path d="M176.382 124.844H231.664V167.48H176.382V124.844Z" fill="#F5F5F5"/>
<path d="M190.231 167.185C190.293 167.185 190.337 157.676 190.337 145.956C190.337 134.235 190.293 124.732 190.231 124.732C190.17 124.732 190.12 134.207 190.12 145.956C190.12 157.704 190.17 167.185 190.231 167.185Z" fill="white"/>
<path d="M181.069 157.777H185.305V162.57H181.069V157.777Z" fill="#FAFAFA"/>
<path d="M208.518 124.956H214.799V134.051H208.518V124.956Z" fill="white"/>
<path d="M208.518 158.262H214.799V167.357H208.518V158.262Z" fill="white"/>
<path d="M171.478 82.3193H226.76V124.955H171.478V82.3193Z" fill="#EBEBEB"/>
<path d="M185.327 124.655C185.389 124.655 185.439 115.18 185.439 103.431C185.439 91.6829 185.389 82.2026 185.327 82.2026C185.266 82.2026 185.216 91.6773 185.216 103.431C185.216 115.186 185.283 124.655 185.327 124.655Z" fill="white"/>
<path d="M176.165 115.252H180.4V120.046H176.165V115.252Z" fill="#FAFAFA"/>
<path d="M203.613 82.4253H209.894V91.521H203.613V82.4253Z" fill="white"/>
<path d="M203.613 115.731H209.894V124.827H203.613V115.731Z" fill="white"/>
<path d="M173.551 52.7251H213.105V83.2335H173.551V52.7251Z" fill="#EBEBEB"/>
<path d="M183.455 83.0218C183.5 83.0218 183.533 76.2223 183.533 67.8345C183.533 59.4466 183.5 52.6694 183.455 52.6694C183.41 52.6694 183.377 59.4689 183.377 67.8568C183.377 76.2446 183.416 83.0218 183.455 83.0218Z" fill="white"/>
<path d="M176.9 76.2944H179.932V79.722H176.9V76.2944Z" fill="#FAFAFA"/>
<path d="M196.541 52.8086H201.033V59.3182H196.541V52.8086Z" fill="white"/>
<path d="M196.541 76.6348H201.033V83.1444H196.541V76.6348Z" fill="white"/>
<path d="M157.85 216.503H221.565V265.649H157.85V216.503Z" fill="#EBEBEB"/>
<path d="M173.813 265.298C173.885 265.298 173.941 254.346 173.941 240.837C173.941 227.327 173.885 216.37 173.813 216.37C173.741 216.37 173.69 227.321 173.69 240.837C173.69 254.352 173.746 265.298 173.813 265.298Z" fill="white"/>
<path d="M163.257 254.458H168.139V259.981H163.257V254.458Z" fill="#FAFAFA"/>
<path d="M194.891 216.625H202.131V227.109H194.891V216.625Z" fill="white"/>
<path d="M194.891 255.015H202.131V265.498H194.891V255.015Z" fill="white"/>
<path d="M166.656 167.486H230.37V216.631H166.656V167.486Z" fill="#EBEBEB"/>
<path d="M182.613 216.28C182.685 216.28 182.741 205.329 182.741 191.819C182.741 178.309 182.685 167.352 182.613 167.352C182.54 167.352 182.49 178.304 182.49 191.819C182.49 205.334 182.546 216.28 182.613 216.28Z" fill="white"/>
<path d="M172.057 205.44H176.939V210.963H172.057V205.44Z" fill="#FAFAFA"/>
<path d="M203.691 167.608H210.931V178.092H203.691V167.608Z" fill="white"/>
<path d="M203.691 205.997H210.931V216.481H203.691V205.997Z" fill="white"/>
<path d="M305.221 255.912V250.667H412.508C412.887 250.667 413.252 250.818 413.52 251.087C413.789 251.356 413.94 251.72 413.94 252.1V254.48C413.94 254.86 413.789 255.224 413.52 255.492C413.252 255.761 412.887 255.912 412.508 255.912H409.52V258.325C409.52 258.51 409.557 258.694 409.628 258.865C409.698 259.036 409.802 259.191 409.933 259.322C410.064 259.453 410.22 259.557 410.391 259.628C410.562 259.699 410.745 259.735 410.93 259.735H412.53C412.898 259.735 413.252 259.879 413.515 260.136C413.779 260.394 413.931 260.744 413.94 261.112V263.536C413.94 263.91 413.791 264.269 413.527 264.533C413.263 264.798 412.904 264.946 412.53 264.946H305.221V259.702H330.228V255.901L305.221 255.912ZM383.805 255.912H377.373V259.713H383.805V255.912ZM388.091 259.713H394.517V255.912H388.091V259.713ZM373.104 255.912H366.678V259.713H373.104V255.912ZM362.392 255.912H355.961V259.713H362.375L362.392 255.912ZM351.675 255.912H345.237V259.713H351.658L351.675 255.912ZM405.251 255.912H398.803V259.713H405.234L405.251 255.912ZM334.531 259.713H340.946V255.912H334.514L334.531 259.713Z" fill="white"/>
<path d="M308.838 146.58H366.901V191.367H308.838V146.58Z" fill="#B8B8B8"/>
<path opacity="0.3" d="M308.838 146.58H366.901V191.367H308.838V146.58Z" fill="black"/>
<path d="M323.384 191.05C323.434 191.05 323.479 181.068 323.479 168.757C323.479 156.445 323.434 146.463 323.384 146.463C323.334 146.463 323.29 156.445 323.29 168.757C323.29 181.068 323.334 191.05 323.384 191.05Z" fill="#263238"/>
<path d="M313.759 181.174H318.212V186.207H313.759V181.174Z" fill="#F5F5F5"/>
<path d="M342.595 146.697H349.188V156.256H342.595V146.697Z" fill="#263238"/>
<path d="M342.595 181.675H349.188V191.234H342.595V181.675Z" fill="#263238"/>
<path d="M309.34 146.58H309.491H309.925H311.597L317.767 146.608H338.115H358.469L364.633 146.575L358.469 146.547H338.115H317.767L311.597 146.575H309.925H309.491L309.34 146.58Z" fill="#263238"/>
<path d="M260.5 146.524H318.563V191.312H260.5V146.524Z" fill="#B8B8B8"/>
<path d="M275.047 190.994C275.097 190.994 275.142 181.012 275.142 168.701C275.142 156.389 275.097 146.407 275.047 146.407C274.997 146.407 274.952 156.383 274.952 168.701C274.952 181.018 275.014 190.994 275.047 190.994Z" fill="#263238"/>
<path d="M265.422 181.118H269.875V186.151H265.422V181.118Z" fill="#F5F5F5"/>
<path opacity="0.5" d="M294.258 146.642H300.851V156.2H294.258V146.642Z" fill="white"/>
<path opacity="0.5" d="M294.258 181.62H300.851V191.178H294.258V181.62Z" fill="white"/>
<path d="M261.153 146.525H261.593H263.265L269.429 146.553H289.777H310.131L316.301 146.525L310.131 146.491L289.777 146.463L269.429 146.491L263.265 146.525H261.593H261.153Z" fill="#263238"/>
<path d="M257.24 101.737H315.303V146.525H257.24V101.737Z" fill="#B8B8B8"/>
<path d="M271.786 146.207C271.842 146.207 271.881 136.225 271.881 123.913C271.881 111.602 271.842 101.62 271.786 101.62C271.731 101.62 271.692 111.596 271.692 123.913C271.692 136.231 271.736 146.207 271.786 146.207Z" fill="#263238"/>
<path d="M262.161 136.331H266.614V141.364H262.161V136.331Z" fill="#F5F5F5"/>
<path d="M290.997 101.854H297.59V111.413H290.997V101.854Z" fill="#263238"/>
<path d="M290.997 136.833H297.59V146.391H290.997V136.833Z" fill="#263238"/>
<path d="M257.735 101.715C257.783 101.723 257.832 101.723 257.88 101.715H258.321H259.993H266.157L286.505 101.743L306.859 101.715H313.028H314.7H315.141C315.189 101.723 315.238 101.723 315.286 101.715H315.141H314.7H313.028L306.859 101.682H286.505H266.157L259.993 101.715H258.321H257.88H257.735Z" fill="#263238"/>
<path d="M263.449 241.232V235.988H370.73C371.11 235.988 371.475 236.139 371.745 236.407C372.014 236.675 372.166 237.04 372.168 237.42V239.8C372.166 240.18 372.014 240.545 371.745 240.813C371.475 241.082 371.11 241.232 370.73 241.232H367.742V243.618C367.742 243.993 367.892 244.353 368.157 244.619C368.423 244.884 368.783 245.033 369.158 245.033H370.752C371.127 245.033 371.486 245.182 371.751 245.446C372.016 245.71 372.166 246.069 372.168 246.443V248.851C372.166 249.226 372.016 249.584 371.751 249.848C371.486 250.113 371.127 250.261 370.752 250.261H263.449V245.017H288.456V241.216L263.449 241.232ZM342.033 241.232H335.607V245.033H342.027L342.033 241.232ZM346.319 245.033H352.745V241.232H346.313L346.319 245.033ZM331.304 241.232H324.872V245.033H331.304V241.232ZM320.587 241.232H314.16V245.033H320.598L320.587 241.232ZM309.875 241.232H303.437V245.033H309.886L309.875 241.232ZM363.445 241.232H357.019V245.033H363.457L363.445 241.232ZM292.731 245.033H299.174V241.232H292.742L292.731 245.033Z" fill="#455A64"/>
<path d="M176.973 150.877C176.797 150.698 176.659 150.485 176.567 150.251C176.474 150.018 176.429 149.768 176.434 149.517C176.439 149.266 176.495 149.018 176.597 148.788C176.699 148.559 176.846 148.352 177.029 148.18L195.125 131.075C195.487 130.736 195.964 130.547 196.46 130.547C196.956 130.547 197.433 130.736 197.795 131.075C197.985 131.252 198.138 131.465 198.245 131.701C198.352 131.938 198.41 132.194 198.417 132.453C198.424 132.713 198.378 132.971 198.284 133.213C198.19 133.455 198.048 133.675 197.867 133.862L190.65 141.453L194.406 145.07L196.363 143.515L210.012 159.148L217.307 152.131L226.102 177.997L224.357 213.109H204.126L205.542 171.381L191.971 152.053L191.865 147.455L187.963 143.459L179.553 150.972C179.189 151.297 178.713 151.468 178.225 151.45C177.737 151.433 177.274 151.227 176.934 150.877H176.973Z" fill="#263238"/>
<path d="M231.541 219.613C231.619 219.613 231.686 187.578 231.686 148.068C231.686 108.559 231.619 76.5122 231.541 76.5122C231.463 76.5122 231.396 108.542 231.396 148.068C231.396 187.594 231.48 219.613 231.541 219.613Z" fill="#263238"/>
<path d="M186.258 210.59L173.952 176.398L178.578 174.525V167.921L144.931 167.402C144.138 167.387 143.378 167.084 142.791 166.55C142.205 166.016 141.832 165.287 141.743 164.499L136.794 120.57C136.683 119.587 136.215 118.68 135.478 118.021C134.741 117.362 133.787 116.998 132.798 116.997C132.256 116.997 131.72 117.106 131.221 117.318C130.722 117.53 130.271 117.841 129.896 118.233C129.521 118.624 129.228 119.086 129.036 119.593C128.844 120.1 128.757 120.641 128.78 121.183L130.664 166.449L113.096 166.544L112.5 174.798L164.455 176.832L178.003 210.1L186.258 210.59Z" fill="#455A64"/>
<path d="M178.516 209.754L222.256 210.099V213.014L204.137 212.78L175.278 212.557L105.311 202.681L113.241 172.496H160.615C161.434 172.484 162.243 172.672 162.974 173.043C163.704 173.413 164.333 173.957 164.806 174.625L178.516 209.754Z" fill="#263238"/>
<path d="M199.478 83.5237L231.246 184.919L231.023 213.126H220.952V185.098L194.902 83.7967L124.321 83.401L110.823 188.921H102.859L119.283 84.1423C119.542 82.7717 120.27 81.5344 121.344 80.6441C122.418 79.7537 123.768 79.2661 125.163 79.2656H193.748C195.034 79.2651 196.286 79.679 197.318 80.446C198.35 81.213 199.108 82.2923 199.478 83.5237Z" fill="#455A64"/>
<path d="M236.98 245.702V218.616L231.05 213.126L175.317 212.407L165.285 204.247C163.417 202.73 161.117 201.841 158.714 201.706L147.98 201.099C147.98 201.099 143.165 197.782 138.505 194.494C132.604 190.313 125.551 188.065 118.319 188.062H87.4256C86.3037 188.063 85.2278 188.508 84.4345 189.301C83.6412 190.095 83.1955 191.171 83.1955 192.293V245.702H236.98Z" fill="#B8B8B8"/>
<path d="M83.2068 236.974H237.527V245.88H83.2068V236.974Z" fill="#263238"/>
<path d="M229.54 245.602C229.596 249.376 228.531 253.082 226.481 256.251C224.43 259.42 221.486 261.91 218.02 263.405C214.555 264.901 210.723 265.335 207.011 264.653C203.298 263.971 199.872 262.203 197.164 259.573C194.456 256.944 192.589 253.57 191.799 249.879C191.009 246.188 191.331 242.346 192.725 238.838C194.118 235.33 196.521 232.314 199.629 230.172C202.736 228.03 206.41 226.857 210.184 226.803C215.243 226.73 220.125 228.669 223.754 232.194C227.384 235.72 229.465 240.542 229.54 245.602Z" fill="#263238"/>
<path d="M229.534 245.557C229.534 245.557 229.534 245.585 229.534 245.602C229.563 250.633 227.604 255.473 224.082 259.067C220.56 262.661 215.762 264.719 210.73 264.792C205.699 264.866 200.842 262.949 197.217 259.459C193.592 255.97 191.492 251.189 191.374 246.159C191.374 246.159 191.374 246.126 191.374 246.109L229.534 245.557Z" fill="#263238"/>
<path d="M223.856 245.685C223.889 248.329 223.139 250.923 221.699 253.141C220.26 255.358 218.195 257.099 215.767 258.144C213.338 259.188 210.654 259.49 208.055 259.011C205.455 258.531 203.055 257.292 201.159 255.45C199.263 253.607 197.956 251.244 197.402 248.659C196.848 246.074 197.072 243.383 198.047 240.925C199.021 238.468 200.703 236.354 202.878 234.851C205.053 233.349 207.624 232.524 210.268 232.482C212.028 232.454 213.776 232.774 215.412 233.423C217.048 234.071 218.54 235.037 219.802 236.263C221.065 237.49 222.072 238.954 222.768 240.57C223.463 242.187 223.833 243.925 223.856 245.685Z" fill="#FAFAFA"/>
<path d="M210.268 232.482C212.028 232.454 213.776 232.774 215.412 233.423C217.048 234.071 218.54 235.037 219.802 236.263C221.065 237.49 222.072 238.954 222.768 240.57C223.464 242.187 223.833 243.925 223.856 245.685L197.065 246.07C197.037 244.31 197.356 242.562 198.005 240.926C198.654 239.29 199.619 237.798 200.846 236.536C202.073 235.273 203.536 234.265 205.153 233.57C206.77 232.874 208.508 232.505 210.268 232.482Z" fill="white"/>
<path d="M218.622 245.763C218.642 247.377 218.183 248.96 217.303 250.313C216.423 251.665 215.161 252.727 213.678 253.362C212.195 253.998 210.556 254.18 208.97 253.884C207.384 253.589 205.92 252.83 204.765 251.703C203.61 250.576 202.815 249.132 202.481 247.553C202.147 245.974 202.288 244.332 202.887 242.834C203.486 241.335 204.516 240.048 205.847 239.135C207.177 238.222 208.749 237.724 210.363 237.704C212.526 237.679 214.611 238.513 216.16 240.025C217.709 241.536 218.594 243.6 218.622 245.763Z" fill="#263238"/>
<path d="M136.165 245.602C136.22 249.376 135.156 253.082 133.105 256.251C131.055 259.42 128.11 261.91 124.645 263.405C121.179 264.901 117.348 265.335 113.635 264.653C109.923 263.971 106.496 262.203 103.788 259.573C101.081 256.944 99.2136 253.57 98.4234 249.879C97.6332 246.188 97.9554 242.346 99.3491 238.838C100.743 235.33 103.145 232.314 106.253 230.172C109.361 228.03 113.034 226.857 116.808 226.803C121.868 226.73 126.749 228.669 130.379 232.194C134.009 235.72 136.09 240.542 136.165 245.602Z" fill="#263238"/>
<path d="M136.159 245.557C136.159 245.557 136.159 245.585 136.159 245.602C136.188 250.633 134.228 255.473 130.706 259.067C127.185 262.661 122.386 264.719 117.355 264.792C112.324 264.866 107.467 262.949 103.842 259.459C100.217 255.97 98.1164 251.189 97.9983 246.159C97.9983 246.159 97.9983 246.126 97.9983 246.109L136.159 245.557Z" fill="#263238"/>
<path d="M130.48 245.685C130.514 248.329 129.764 250.923 128.324 253.141C126.884 255.358 124.82 257.099 122.391 258.144C119.963 259.188 117.279 259.49 114.679 259.011C112.079 258.531 109.68 257.292 107.784 255.45C105.888 253.607 104.58 251.244 104.026 248.659C103.472 246.074 103.697 243.383 104.671 240.925C105.646 238.468 107.327 236.354 109.502 234.851C111.677 233.349 114.249 232.524 116.892 232.482C118.652 232.454 120.4 232.774 122.036 233.423C123.672 234.071 125.164 235.037 126.427 236.263C127.689 237.49 128.697 238.954 129.392 240.57C130.088 242.187 130.458 243.925 130.48 245.685Z" fill="#FAFAFA"/>
<path d="M116.892 232.482C118.652 232.454 120.4 232.774 122.037 233.423C123.673 234.071 125.165 235.037 126.427 236.263C127.689 237.49 128.697 238.954 129.393 240.57C130.088 242.187 130.458 243.925 130.48 245.685L103.689 246.07C103.661 244.31 103.981 242.562 104.63 240.926C105.279 239.29 106.244 237.798 107.47 236.536C108.697 235.273 110.161 234.265 111.778 233.57C113.394 232.874 115.133 232.505 116.892 232.482Z" fill="white"/>
<path d="M125.241 245.763C125.261 247.376 124.802 248.958 123.923 250.311C123.043 251.663 121.783 252.724 120.301 253.36C118.818 253.997 117.181 254.179 115.595 253.885C114.009 253.591 112.546 252.834 111.39 251.708C110.234 250.583 109.438 249.14 109.102 247.563C108.766 245.985 108.905 244.343 109.501 242.845C110.098 241.346 111.125 240.058 112.454 239.143C113.782 238.228 115.352 237.727 116.965 237.704C118.038 237.689 119.103 237.885 120.1 238.282C121.097 238.679 122.006 239.268 122.775 240.017C123.543 240.765 124.157 241.658 124.58 242.644C125.003 243.63 125.228 244.69 125.241 245.763Z" fill="#263238"/>
<path d="M92.2524 232.298C92.2872 232.256 92.3189 232.211 92.3471 232.164L92.5924 231.763L92.9825 231.105C93.153 230.804 93.339 230.512 93.5398 230.23C94.7639 228.389 96.2088 226.704 97.8424 225.214C98.3329 224.718 98.9292 224.289 99.5144 223.793C100.1 223.297 100.768 222.873 101.437 222.4C102.106 221.926 102.842 221.491 103.633 221.107C104.018 220.906 104.408 220.689 104.809 220.494L106.063 219.936C107.842 219.186 109.695 218.626 111.592 218.264C113.628 217.873 115.701 217.716 117.773 217.796C121.787 218.02 125.702 219.136 129.231 221.062L130.424 221.731C130.809 221.965 131.171 222.221 131.539 222.456C132.291 222.913 132.938 223.47 133.601 223.955C134.264 224.44 134.838 224.991 135.384 225.521C135.931 226.05 136.466 226.557 136.912 227.098C138.397 228.738 139.675 230.553 140.718 232.504C140.893 232.803 141.049 233.112 141.186 233.429C141.314 233.697 141.426 233.925 141.515 234.12L141.721 234.544C141.743 234.593 141.769 234.639 141.799 234.683C141.79 234.631 141.773 234.58 141.749 234.533L141.571 234.098L141.27 233.396C141.138 233.073 140.987 232.759 140.818 232.454C139.807 230.47 138.545 228.625 137.062 226.964C136.622 226.407 136.07 225.917 135.54 225.359C135.011 224.802 134.376 224.311 133.751 223.765C133.127 223.219 132.436 222.712 131.684 222.244C131.316 222.004 130.948 221.748 130.569 221.508L129.371 220.823C127.657 219.893 125.851 219.146 123.981 218.593C121.969 218.002 119.895 217.643 117.801 217.523C113.742 217.365 109.699 218.117 105.968 219.725L104.709 220.282C104.302 220.477 103.912 220.7 103.522 220.906C102.725 221.296 102.028 221.798 101.292 222.221C100.557 222.645 99.9603 223.158 99.364 223.643C98.7676 224.127 98.1824 224.584 97.692 225.086C96.0603 226.601 94.6293 228.318 93.4339 230.197C93.2319 230.484 93.0459 230.781 92.8766 231.089L92.5143 231.763C92.4196 231.936 92.3472 232.069 92.2914 232.181C92.2357 232.292 92.2468 232.292 92.2524 232.298Z" fill="#263238"/>
<path d="M185.544 235.81C185.577 235.763 185.603 235.712 185.622 235.659C185.667 235.542 185.728 235.392 185.806 235.202L186.107 234.461C186.241 234.171 186.392 233.837 186.559 233.463C187.53 231.357 188.74 229.369 190.165 227.539C192.243 224.795 194.894 222.538 197.934 220.923C199.754 220.034 201.685 219.391 203.674 219.011C205.806 218.572 207.98 218.374 210.156 218.421C212.332 218.451 214.497 218.73 216.61 219.251C218.576 219.744 220.471 220.483 222.25 221.453C225.29 223.069 228.008 225.228 230.27 227.823C231.775 229.582 233.083 231.499 234.172 233.541C234.562 234.266 234.857 234.834 235.041 235.213C235.13 235.397 235.208 235.542 235.264 235.653C235.285 235.705 235.313 235.754 235.348 235.798C235.338 235.744 235.319 235.691 235.292 235.642L235.091 235.191C234.924 234.79 234.645 234.216 234.272 233.48C233.217 231.403 231.926 229.455 230.426 227.672C228.167 225.036 225.438 222.842 222.379 221.202C220.582 220.221 218.668 219.472 216.683 218.972C214.548 218.445 212.36 218.163 210.162 218.131C207.962 218.093 205.766 218.302 203.613 218.755C201.601 219.144 199.65 219.8 197.811 220.706C194.747 222.349 192.082 224.647 190.009 227.438C188.59 229.29 187.398 231.306 186.458 233.441L186.035 234.45C185.929 234.745 185.834 235.007 185.762 235.202C185.689 235.397 185.639 235.548 185.6 235.67C185.576 235.714 185.557 235.761 185.544 235.81Z" fill="#263238"/>
<path d="M237.02 235.988H321.612V245.88H237.02V235.988Z" fill="#263238"/>
<path d="M239.311 240.184C239.311 240.671 239.455 241.148 239.726 241.553C239.997 241.958 240.381 242.274 240.831 242.46C241.282 242.646 241.777 242.695 242.255 242.6C242.733 242.505 243.172 242.271 243.516 241.926C243.861 241.581 244.095 241.143 244.19 240.665C244.285 240.187 244.236 239.692 244.05 239.241C243.864 238.791 243.548 238.407 243.143 238.136C242.738 237.865 242.261 237.721 241.774 237.721C241.121 237.721 240.494 237.98 240.032 238.442C239.57 238.904 239.311 239.531 239.311 240.184Z" fill="#455A64"/>
<path d="M238.129 78.4854H245.19V218.755H238.129V78.4854Z" fill="#455A64"/>
<path d="M137.709 226.747C137.709 226.825 149.613 226.892 164.293 226.892C178.974 226.892 190.878 226.825 190.878 226.747C190.878 226.669 178.979 226.602 164.293 226.602C149.608 226.602 137.709 226.669 137.709 226.747Z" fill="#263238"/>
<path d="M148.543 224.646C148.626 224.646 148.688 219.468 148.688 213.081C148.688 206.694 148.626 201.522 148.543 201.522C148.459 201.522 148.398 206.694 148.398 213.081C148.398 219.468 148.465 224.646 148.543 224.646Z" fill="#263238"/>
<path d="M231.536 75.2695H245.949V81.7012H231.536V75.2695Z" fill="#263238"/>
<path d="M237.02 217.596H246.299V236.11H237.02V217.596Z" fill="#263238"/>
<path d="M258.566 191.329H316.629V236.116H258.566V191.329Z" fill="#B8B8B8"/>
<path opacity="0.3" d="M258.566 191.329H316.629V236.116H258.566V191.329Z" fill="black"/>
<path d="M273.113 235.798C273.163 235.798 273.208 225.816 273.208 213.505C273.208 201.193 273.163 191.211 273.113 191.211C273.063 191.211 273.018 201.193 273.018 213.505C273.018 225.816 273.063 235.798 273.113 235.798Z" fill="#263238"/>
<path d="M263.488 225.922H267.941V230.955H263.488V225.922Z" fill="#F5F5F5"/>
<path d="M292.324 191.445H298.918V201.004H292.324V191.445Z" fill="#263238"/>
<path d="M292.324 226.424H298.918V235.982H292.324V226.424Z" fill="#263238"/>
<path d="M259.073 191.329H259.218H259.658H261.33L267.5 191.356L287.832 191.446H308.185L314.349 191.418H316.021H316.462H316.607C316.559 191.413 316.51 191.413 316.462 191.418H316.021H314.349L308.185 191.39L287.832 191.362L267.483 191.39L261.314 191.418H259.642H259.201C259.162 191.384 259.119 191.354 259.073 191.329Z" fill="#263238"/>
<path d="M319.472 191.329H377.535V236.116H319.472V191.329Z" fill="#B8B8B8"/>
<path d="M334.013 235.798C334.068 235.798 334.107 225.816 334.107 213.505C334.107 201.193 334.068 191.211 334.013 191.211C333.957 191.211 333.924 201.193 333.924 213.505C333.924 225.816 333.963 235.798 334.013 235.798Z" fill="#263238"/>
<path d="M324.387 225.922H328.84V230.955H324.387V225.922Z" fill="#F5F5F5"/>
<path opacity="0.5" d="M353.223 191.445H359.817V201.004H353.223V191.445Z" fill="white"/>
<path opacity="0.5" d="M353.223 226.424H359.817V235.982H353.223V226.424Z" fill="white"/>
<path d="M319.973 191.328H320.124H320.558H322.23L328.395 191.356H348.743H369.097L375.266 191.328H376.938H377.373H377.523C377.473 191.324 377.423 191.324 377.373 191.328H376.938H375.266L369.097 191.3L348.743 191.272L328.395 191.3L322.23 191.328H320.558H320.124C320.074 191.323 320.023 191.323 319.973 191.328Z" fill="#263238"/>
<path d="M80.771 203.501C77.7781 204.226 75.2646 207.263 75.3147 210.345C75.3782 211.889 75.9463 213.369 76.9319 214.559C77.9174 215.749 79.2661 216.583 80.771 216.933" fill="#B8B8B8"/>
<g opacity="0.6">
<path d="M80.772 203.5C77.7791 204.225 75.2655 207.262 75.3157 210.345C75.3792 211.888 75.9473 213.369 76.9329 214.559C77.9184 215.748 79.267 216.582 80.772 216.932" fill="white"/>
</g>
<path d="M80.6489 201.773H83.207V218.721H80.6489V201.773Z" fill="#B8B8B8"/>
<path opacity="0.3" d="M80.6489 201.773H83.207V218.721H80.6489V201.773Z" fill="black"/>
<path d="M202.366 133.856C202.673 133.617 202.885 133.276 202.961 132.894C203.038 132.513 202.975 132.116 202.784 131.777C202.354 131.03 201.853 130.15 201.624 129.782C201.345 129.347 201.09 128.896 200.861 128.433C200.79 128.156 200.643 127.905 200.436 127.707C200.229 127.51 199.97 127.375 199.69 127.318C199.01 127.231 198.319 127.251 197.645 127.38L190.673 128.884L187.423 130.49L190.584 133.276L192.339 132.719C192.869 133.176 194.936 133.416 195.639 133.332C196.536 133.221 198.33 132.635 199.35 132.83L200.337 132.97L199.869 133.36C199.011 133.298 198.153 133.474 197.389 133.867C197.266 133.949 197.173 134.068 197.121 134.206C197.07 134.344 197.062 134.494 197.1 134.637C197.138 134.779 197.22 134.906 197.333 135C197.447 135.094 197.587 135.15 197.734 135.16L200.025 135.311C200.645 135.019 201.241 134.68 201.808 134.296C201.986 134.139 202.172 133.992 202.366 133.856Z" fill="#FFBE9D"/>
<path d="M200.331 132.992C200.444 133.069 200.571 133.122 200.704 133.148C201.068 133.254 201.455 133.254 201.819 133.148C202.081 133.062 202.311 132.901 202.482 132.686C202.58 132.554 202.649 132.405 202.686 132.245C202.722 132.086 202.725 131.921 202.694 131.76C202.652 131.576 202.55 131.412 202.404 131.292C202.259 131.186 202.097 131.105 201.925 131.053C201.591 130.942 201.251 130.854 200.905 130.791C200.248 130.664 199.583 130.578 198.915 130.534C198.609 130.534 198.319 130.501 198.04 130.501H197.829H197.661C197.545 130.484 197.43 130.462 197.316 130.434C196.841 130.281 196.36 130.153 195.872 130.049C196.305 130.306 196.775 130.494 197.266 130.607C197.384 130.646 197.505 130.676 197.628 130.696C197.702 130.705 197.777 130.705 197.851 130.696H198.04C198.302 130.696 198.598 130.729 198.893 130.757C199.549 130.815 200.202 130.906 200.849 131.03C201.181 131.092 201.509 131.173 201.83 131.275C202.153 131.37 202.388 131.515 202.432 131.777C202.457 131.901 202.457 132.029 202.432 132.154C202.407 132.278 202.358 132.396 202.287 132.502C202.143 132.688 201.95 132.83 201.73 132.914C201.397 133.03 201.041 133.063 200.693 133.009C200.481 133.003 200.331 132.964 200.331 132.992Z" fill="#EB996E"/>
<path d="M199.467 129.358C199.389 129.358 199.255 129.704 199.395 130.144C199.534 130.585 199.846 130.819 199.896 130.757C199.946 130.696 199.779 130.428 199.668 130.061C199.556 129.693 199.551 129.37 199.467 129.358Z" fill="#EB996E"/>
<path d="M198.375 129.799C198.297 129.799 198.275 130.077 198.47 130.356C198.665 130.635 198.927 130.657 198.955 130.579C198.983 130.501 198.838 130.367 198.699 130.178C198.559 129.988 198.459 129.788 198.375 129.799Z" fill="#EB996E"/>
<path d="M170.926 128.244C169.968 127.842 176.433 134.491 176.433 134.491L188.382 130.033L192.601 132.624L179.755 141.67C178.434 142.601 176.824 143.028 175.216 142.875C173.608 142.722 172.108 141.998 170.988 140.834L163.402 132.067L170.926 128.244Z" fill="#FFBE9D"/>
<path d="M163.921 101.603C165.593 101.28 166.629 100.767 166.674 100.126C166.763 98.7998 162.555 97.4399 157.272 97.0776C151.988 96.7154 147.641 97.5068 147.546 98.8277C147.507 99.4686 148.46 100.115 150.054 100.656" fill="#919191"/>
<g opacity="0.4">
<path d="M162.99 101.492C164.467 101.213 165.431 100.756 165.431 100.188C165.431 98.5992 161.781 97.8022 157.099 97.4845C152.417 97.1668 148.555 97.8635 148.477 99.0395C148.438 99.5968 149.285 100.154 150.706 100.656" fill="black"/>
</g>
<path d="M165.404 99.4127C165.404 99.4127 164.417 93.7 164.317 93.4157C164.216 93.1315 162.784 90.5678 159 89.6036L155.834 89.3862C155.834 89.3862 151.242 90.5288 150.35 91.571C149.458 92.6132 148.745 97.8967 148.745 97.8967L157.751 96.5703L163.687 98.4485L165.404 99.4127Z" fill="#919191"/>
<path d="M158.007 88.896L159.367 88.9851C159.684 89.4057 159.842 89.925 159.813 90.4509C159.813 91.4374 159.573 98.2034 159.573 98.2034L155.616 97.7576L156.302 89.4199L154.936 89.6317L155.009 89.1579L155.393 88.7622L158.007 88.896Z" fill="#919191"/>
<path d="M149.737 120.034L159.434 120.246C159.557 119.226 159.468 112.845 159.468 112.845C159.468 112.845 163.157 112.521 163.452 108.871C163.748 105.22 163.681 97.8859 163.681 97.8859L163.642 97.5627C159.534 95.4615 154.647 94.9655 150.823 97.5292L150.266 97.9082L149.737 120.034Z" fill="#FFBE9D"/>
<path d="M159.468 112.861C157.779 112.741 156.16 112.14 154.803 111.128C154.803 111.128 155.812 113.915 159.479 113.809L159.468 112.861Z" fill="#EB996E"/>
<path d="M150.433 101.715C150.372 101.715 147.976 100.806 147.886 103.309C147.797 105.811 150.327 105.382 150.333 105.315C150.339 105.248 150.433 101.715 150.433 101.715Z" fill="#FFBE9D"/>
<path d="M149.614 104.34C149.614 104.34 149.569 104.373 149.497 104.401C149.445 104.423 149.389 104.435 149.333 104.435C149.276 104.435 149.22 104.423 149.168 104.401C149.01 104.293 148.884 104.144 148.803 103.971C148.721 103.797 148.688 103.605 148.706 103.414C148.706 103.2 148.756 102.988 148.85 102.796C148.877 102.719 148.922 102.649 148.981 102.593C149.04 102.536 149.112 102.495 149.19 102.473C149.241 102.462 149.293 102.469 149.339 102.492C149.384 102.515 149.421 102.554 149.441 102.601C149.475 102.673 149.441 102.723 149.469 102.729C149.497 102.735 149.525 102.69 149.508 102.584C149.494 102.522 149.461 102.465 149.413 102.422C149.346 102.368 149.26 102.342 149.174 102.35C149.07 102.366 148.972 102.41 148.89 102.475C148.808 102.54 148.745 102.626 148.706 102.723C148.587 102.926 148.516 103.153 148.499 103.387C148.475 103.612 148.519 103.839 148.627 104.038C148.734 104.237 148.9 104.399 149.101 104.501C149.168 104.524 149.238 104.532 149.308 104.523C149.377 104.514 149.444 104.49 149.503 104.451C149.614 104.401 149.614 104.345 149.614 104.34Z" fill="#EB996E"/>
<path d="M162.471 102.394C162.456 102.531 162.391 102.658 162.288 102.749C162.185 102.841 162.052 102.891 161.914 102.89C161.78 102.89 161.651 102.837 161.555 102.742C161.46 102.647 161.407 102.518 161.407 102.383C161.422 102.246 161.487 102.12 161.59 102.028C161.693 101.937 161.826 101.886 161.964 101.887C162.099 101.887 162.228 101.941 162.323 102.036C162.418 102.131 162.471 102.26 162.471 102.394Z" fill="#263238"/>
<path d="M162.638 101.882C162.571 101.943 162.193 101.625 161.63 101.586C161.067 101.547 160.638 101.804 160.582 101.731C160.526 101.659 160.632 101.581 160.816 101.464C161.072 101.313 161.367 101.243 161.663 101.263C161.956 101.282 162.235 101.393 162.46 101.581C162.622 101.714 162.672 101.854 162.638 101.882Z" fill="#263238"/>
<path d="M156.937 102.188C156.933 102.258 156.916 102.326 156.886 102.388C156.856 102.451 156.814 102.507 156.762 102.553C156.71 102.599 156.65 102.635 156.584 102.657C156.518 102.68 156.449 102.689 156.38 102.684C156.313 102.684 156.248 102.671 156.186 102.646C156.125 102.62 156.07 102.583 156.023 102.536C155.976 102.488 155.939 102.432 155.915 102.371C155.89 102.309 155.877 102.244 155.878 102.177C155.882 102.108 155.899 102.04 155.929 101.977C155.959 101.915 156.001 101.859 156.053 101.813C156.105 101.767 156.165 101.731 156.231 101.709C156.297 101.686 156.366 101.677 156.435 101.681C156.502 101.681 156.567 101.694 156.629 101.72C156.69 101.746 156.745 101.783 156.792 101.83C156.839 101.877 156.876 101.933 156.9 101.995C156.925 102.056 156.938 102.122 156.937 102.188Z" fill="#263238"/>
<path d="M157.11 101.609C157.043 101.675 156.669 101.358 156.106 101.319C155.543 101.28 155.114 101.536 155.059 101.464C155.003 101.391 155.103 101.313 155.293 101.191C155.546 101.039 155.84 100.971 156.134 100.996C156.427 101.012 156.707 101.123 156.931 101.313C157.093 101.458 157.143 101.581 157.11 101.609Z" fill="#263238"/>
<path d="M158.866 105.911C159.17 105.843 159.48 105.809 159.791 105.811C159.936 105.811 160.075 105.811 160.103 105.688C160.126 105.542 160.103 105.392 160.036 105.259L159.685 104.145C159.359 103.192 159.105 102.215 158.927 101.224C159.335 102.147 159.667 103.101 159.919 104.078C160.036 104.468 160.148 104.841 160.254 105.192C160.327 105.369 160.339 105.565 160.287 105.75C160.263 105.798 160.227 105.841 160.184 105.874C160.14 105.906 160.09 105.929 160.036 105.939C159.955 105.95 159.873 105.95 159.791 105.939C159.483 105.971 159.172 105.962 158.866 105.911Z" fill="#263238"/>
<path d="M157.188 106.173C157.283 106.173 157.238 106.781 157.745 107.249C158.253 107.717 158.86 107.695 158.86 107.806C158.86 107.918 158.71 107.912 158.431 107.901C158.076 107.88 157.739 107.736 157.478 107.494C157.228 107.258 157.079 106.935 157.06 106.591C157.071 106.329 157.149 106.173 157.188 106.173Z" fill="#263238"/>
<path d="M157.416 99.4183C157.349 99.5688 156.798 99.4573 156.134 99.4963C155.471 99.5353 154.925 99.6746 154.847 99.5297C154.769 99.3848 154.914 99.3235 155.137 99.1898C155.434 99.0246 155.767 98.9329 156.107 98.9223C156.447 98.9049 156.787 98.9679 157.099 99.1062C157.322 99.2232 157.416 99.3514 157.416 99.4183Z" fill="#263238"/>
<path d="M162.544 100.244C162.432 100.361 162.059 100.205 161.591 100.166C161.123 100.127 160.727 100.193 160.643 100.054C160.56 99.9148 160.682 99.8646 160.861 99.7531C161.102 99.6245 161.375 99.5702 161.647 99.597C161.919 99.6238 162.177 99.7305 162.388 99.9036C162.544 100.043 162.589 100.182 162.544 100.244Z" fill="#263238"/>
<path d="M150.172 99.346C150.2 100.366 150.1 101.386 150.127 102.406C150.16 102.791 150.258 103.168 150.417 103.52C150.47 103.725 150.586 103.907 150.748 104.042C150.91 104.177 151.11 104.258 151.32 104.274C151.531 104.289 151.741 104.238 151.921 104.128C152.1 104.018 152.241 103.854 152.323 103.66C152.522 103.257 152.629 102.816 152.635 102.367C152.639 101.917 152.714 101.472 152.858 101.046C153.096 100.605 153.38 100.19 153.706 99.8086C153.865 99.6149 153.978 99.3868 154.035 99.1421C154.092 98.8975 154.092 98.643 154.034 98.3985C152.685 98.3572 151.35 98.6827 150.172 99.3404" fill="#263238"/>
<path d="M163.681 99.7975L163.742 97.7521L157.89 95.5674L150.283 97.2394L150.138 99.4353C154.534 97.8283 159.377 97.9579 163.681 99.7975Z" fill="#455A64"/>
<path d="M163.396 97.2948L163.642 97.5623L165.698 99.0615C163.005 98.1591 160.21 97.5974 157.377 97.3895C154.266 97.3185 151.158 97.6103 148.114 98.2589L151.057 96.7486C151.535 96.3025 152.097 95.9567 152.711 95.7318C153.324 95.5068 153.977 95.4072 154.63 95.4388L160.002 95.6952C160.645 95.7257 161.276 95.8827 161.859 96.1571C162.441 96.4316 162.964 96.8182 163.396 97.2948Z" fill="#919191"/>
<path d="M159.646 95.5117C159.547 94.562 159.521 93.6062 159.568 92.6526C159.545 91.6973 159.593 90.7415 159.713 89.7935C159.819 90.7427 159.845 91.699 159.791 92.6526C159.818 93.6079 159.769 94.5639 159.646 95.5117Z" fill="#263238"/>
<path d="M154.942 89.6316C155.272 89.5102 155.617 89.4352 155.968 89.4087C156.076 89.4171 156.178 89.4658 156.252 89.5452C156.326 89.6247 156.368 89.7291 156.369 89.8378L156.336 90.4398C156.297 90.8689 156.263 91.3259 156.224 91.7997C156.146 92.7694 156.057 93.6444 155.985 94.2742C155.969 94.6195 155.912 94.9618 155.817 95.2941C155.777 94.9516 155.777 94.6056 155.817 94.2631C155.851 93.6277 155.912 92.7527 155.996 91.7885C156.04 91.3092 156.079 90.8522 156.118 90.423C156.118 90.2224 156.163 90.0273 156.18 89.8378C156.18 89.7717 156.157 89.7075 156.114 89.6573C156.071 89.6071 156.011 89.5742 155.946 89.5647C155.614 89.614 155.278 89.6364 154.942 89.6316Z" fill="#263238"/>
<path d="M165.838 99.0451C165.838 99.0451 165.593 98.9225 165.141 98.7274C164.919 98.6271 164.645 98.5156 164.333 98.3428C163.971 98.1556 163.662 97.8795 163.436 97.5403C163.174 97.1501 163.157 96.6318 162.879 96.2417C162.6 95.8516 162.02 95.7903 161.452 95.7345C160.304 95.6063 159.039 95.5116 157.707 95.4559C156.375 95.4001 155.098 95.389 153.945 95.4001C153.415 95.3558 152.886 95.4934 152.445 95.7902C152.267 95.9609 152.105 96.1474 151.961 96.3476L151.732 96.6207L151.615 96.7489C151.567 96.7925 151.512 96.8282 151.453 96.8548C150.629 97.1836 149.954 97.4121 149.492 97.5626C149.257 97.6594 149.017 97.7413 148.773 97.8078C148.827 97.7685 148.884 97.7348 148.945 97.7075C149.062 97.6517 149.235 97.5737 149.464 97.479C149.91 97.2839 150.578 97.0498 151.381 96.7099C151.423 96.6906 151.462 96.6663 151.498 96.6374L151.604 96.5092L151.821 96.2361C151.973 96.0371 152.141 95.8507 152.323 95.6788C152.791 95.3418 153.363 95.1801 153.939 95.2218C155.098 95.2218 156.375 95.2218 157.712 95.2608C159.05 95.2998 160.326 95.4168 161.48 95.5562C161.765 95.5785 162.048 95.6232 162.327 95.6899C162.594 95.758 162.829 95.9178 162.99 96.1414C163.313 96.5984 163.313 97.1167 163.548 97.4622C163.752 97.7863 164.036 98.0529 164.372 98.2369C164.668 98.4153 164.93 98.5435 165.158 98.6549C165.387 98.7664 165.543 98.8612 165.654 98.928C165.721 98.958 165.783 98.9974 165.838 99.0451Z" fill="#263238"/>
<path d="M165.013 99.307C164.959 99.2841 164.908 99.2542 164.862 99.2179C164.767 99.151 164.623 99.0618 164.433 98.9559C163.882 98.6819 163.305 98.4635 162.711 98.3038C160.74 97.7862 158.706 97.5498 156.669 97.6016C155.471 97.6016 154.334 97.6016 153.325 97.6462C152.317 97.6908 151.369 97.8524 150.6 97.9806C150.255 98.0392 149.912 98.1155 149.575 98.2091C149.319 98.2555 149.077 98.3583 148.867 98.5101C148.783 98.5767 148.716 98.6616 148.671 98.7582C148.625 98.8548 148.603 98.9606 148.605 99.0674C148.574 99.0135 148.562 98.9506 148.571 98.889C148.591 98.7117 148.674 98.5475 148.805 98.4265C149.017 98.2503 149.267 98.1262 149.535 98.0642C149.876 97.9584 150.222 97.871 150.572 97.8022C151.477 97.6254 152.39 97.497 153.309 97.4177C154.351 97.3397 155.499 97.3619 156.692 97.3564C158.748 97.3011 160.801 97.5624 162.778 98.1311C163.38 98.3016 163.959 98.5469 164.5 98.8612C164.646 98.9469 164.784 99.0458 164.912 99.1566C164.979 99.2569 165.018 99.3015 165.013 99.307Z" fill="#263238"/>
<path d="M158.782 89.1186C158.597 89.1328 158.411 89.1328 158.225 89.1186L156.876 89.0685C156.353 89.0685 155.868 88.9849 155.533 89.0183C155.442 89.0218 155.354 89.045 155.273 89.0864C155.192 89.1278 155.121 89.1863 155.065 89.2579C155.065 89.2579 155.065 89.2022 155.143 89.1298C155.249 89.0322 155.384 88.9716 155.528 88.957C155.978 88.9219 156.431 88.9219 156.882 88.957L158.231 89.035C158.417 89.042 158.602 89.0701 158.782 89.1186Z" fill="#FAFAFA"/>
<path d="M159.016 95.7347C158.921 95.7443 158.826 95.7443 158.732 95.7347H157.963C157.31 95.7347 156.413 95.7347 155.421 95.7347L154.022 95.7681C153.649 95.7661 153.276 95.7959 152.907 95.8573C152.658 95.9091 152.434 96.0448 152.272 96.2419C152.218 96.3161 152.173 96.3965 152.138 96.4815C152.149 96.3861 152.186 96.2955 152.244 96.2196C152.402 96.0058 152.632 95.8556 152.891 95.796C153.258 95.7249 153.631 95.6876 154.005 95.6845C154.435 95.6845 154.908 95.6511 155.404 95.6455C156.402 95.6455 157.299 95.6455 157.951 95.6734L158.721 95.7124C158.819 95.7111 158.918 95.7185 159.016 95.7347Z" fill="#FAFAFA"/>
<path d="M156.079 94.7426C156.072 94.6759 156.072 94.6086 156.079 94.542C156.079 94.3581 156.129 94.1797 156.157 93.9846C156.218 93.5221 156.297 92.87 156.369 92.1733C156.441 91.4766 156.48 90.8246 156.508 90.362C156.508 90.1725 156.519 89.9867 156.542 89.8046C156.532 89.7381 156.532 89.6705 156.542 89.604C156.55 89.6706 156.55 89.738 156.542 89.8046C156.542 89.9328 156.542 90.1223 156.542 90.362C156.542 90.8301 156.497 91.4766 156.43 92.1845C156.363 92.8923 156.269 93.5332 156.191 93.9902C156.152 94.2243 156.113 94.4082 156.085 94.5475C156.092 94.6125 156.091 94.6782 156.079 94.7426Z" fill="#FAFAFA"/>
<path d="M151.442 96.9604C151.386 96.993 151.326 97.0191 151.264 97.0385L150.774 97.2224L149.146 97.7797C148.846 97.8753 148.552 97.9889 148.266 98.1197C148.037 98.2253 147.853 98.4091 147.747 98.638C147.679 98.7939 147.661 98.9675 147.697 99.134C147.736 99.2455 147.781 99.3012 147.77 99.3068C147.723 99.2616 147.686 99.2063 147.664 99.1452C147.6 98.9744 147.6 98.7866 147.664 98.6157C147.775 98.3683 147.974 98.1701 148.221 98.0584C148.508 97.9176 148.806 97.8001 149.113 97.7073L150.751 97.1499L151.247 96.9939C151.311 96.9748 151.376 96.9636 151.442 96.9604Z" fill="#FAFAFA"/>
<path d="M192.635 196.562L192.128 205.613C192.128 205.613 201.157 209.163 201.223 210.841L183.645 210.495L183.857 196.367L192.635 196.562Z" fill="#919191"/>
<g opacity="0.4">
<path d="M192.635 196.562L192.127 205.613C192.127 205.613 201.156 209.163 201.223 210.841L183.645 210.495L183.857 196.367L192.635 196.562Z" fill="black"/>
</g>
<path d="M186.71 204.743C186.54 204.791 186.393 204.899 186.298 205.049C186.203 205.198 186.167 205.377 186.197 205.552C186.239 205.723 186.344 205.872 186.493 205.968C186.641 206.063 186.821 206.098 186.994 206.064C187.178 206.018 187.338 205.904 187.441 205.744C187.545 205.585 187.584 205.393 187.552 205.206C187.489 205.032 187.363 204.889 187.198 204.806C187.033 204.723 186.842 204.706 186.665 204.76" fill="white"/>
<path d="M183.645 210.495L183.723 209.074L200.549 209.938C200.549 209.938 201.323 210.294 201.223 210.84L183.645 210.495Z" fill="white"/>
<path d="M192.412 205.529C192.412 205.613 191.983 205.641 191.554 205.908C191.125 206.176 190.891 206.532 190.813 206.499C190.735 206.465 190.874 205.969 191.398 205.657C191.922 205.345 192.435 205.451 192.412 205.529Z" fill="#263238"/>
<path d="M194.245 206.326C194.245 206.41 193.888 206.549 193.587 206.883C193.287 207.218 193.197 207.625 193.114 207.619C193.03 207.613 192.98 207.123 193.359 206.688C193.738 206.254 194.245 206.242 194.245 206.326Z" fill="#263238"/>
<path d="M195.248 208.555C195.17 208.555 195.059 208.137 195.287 207.675C195.516 207.212 195.923 207.028 195.956 207.118C195.99 207.207 195.739 207.435 195.555 207.82C195.371 208.204 195.315 208.544 195.248 208.555Z" fill="#263238"/>
<path d="M192.3 203.45C192.261 203.528 191.871 203.406 191.386 203.45C190.901 203.495 190.517 203.617 190.478 203.545C190.439 203.473 190.801 203.172 191.375 203.149C191.949 203.127 192.345 203.383 192.3 203.45Z" fill="#263238"/>
<g opacity="0.3">
<path d="M192.528 198.356L192.445 199.967L183.806 199.716L183.823 198.261L192.528 198.356Z" fill="black"/>
</g>
<path d="M192.367 201.628C192.078 201.704 191.775 201.704 191.486 201.628C191.171 201.562 190.865 201.461 190.572 201.327C190.4 201.244 190.232 201.151 190.07 201.048C189.975 200.989 189.887 200.918 189.809 200.837C189.756 200.774 189.724 200.695 189.719 200.613C189.714 200.53 189.736 200.449 189.781 200.38C189.825 200.32 189.882 200.272 189.948 200.24C190.013 200.207 190.086 200.19 190.16 200.19C190.271 200.188 190.383 200.205 190.488 200.24C190.681 200.287 190.868 200.354 191.046 200.441C191.341 200.584 191.611 200.772 191.848 200.998C192.244 201.383 192.378 201.706 192.35 201.723C192.322 201.74 192.116 201.478 191.709 201.165C191.47 200.98 191.207 200.827 190.929 200.708C190.766 200.639 190.599 200.584 190.427 200.541C190.243 200.486 190.087 200.486 190.037 200.541C189.987 200.597 190.037 200.586 190.037 200.642C190.093 200.701 190.157 200.754 190.227 200.798C190.375 200.898 190.53 200.989 190.689 201.071C190.958 201.212 191.24 201.327 191.531 201.416C191.815 201.464 192.094 201.535 192.367 201.628Z" fill="#263238"/>
<path d="M192.255 201.745C192.222 201.745 192.06 201.449 192.038 200.892C192.031 200.565 192.078 200.24 192.177 199.928C192.235 199.734 192.314 199.548 192.411 199.371C192.459 199.257 192.536 199.158 192.634 199.083C192.731 199.008 192.847 198.959 192.968 198.941C193.046 198.945 193.122 198.97 193.186 199.014C193.25 199.059 193.3 199.12 193.331 199.192C193.372 199.296 193.4 199.405 193.414 199.515C193.442 199.711 193.442 199.91 193.414 200.106C193.358 200.435 193.222 200.745 193.019 201.009C192.667 201.461 192.305 201.566 192.3 201.527C192.294 201.488 192.573 201.321 192.857 200.892C193.014 200.642 193.115 200.36 193.152 200.067C193.177 199.899 193.177 199.728 193.152 199.56C193.152 199.371 193.063 199.22 192.991 199.237C192.918 199.254 192.751 199.371 192.679 199.521C192.586 199.67 192.509 199.829 192.45 199.995C192.345 200.276 192.281 200.57 192.261 200.87C192.216 201.41 192.3 201.734 192.255 201.745Z" fill="#263238"/>
<path d="M145.155 158.122C145.155 158.122 147.078 167.976 150.266 168.115C154.167 168.282 182.508 168.673 182.508 168.673L180.825 200.223L193.186 199.928L198.102 168.834C198.651 166.045 198.184 163.151 196.787 160.675L196.686 160.502C195.63 158.765 194.145 157.328 192.374 156.329C190.602 155.331 188.604 154.805 186.571 154.801L163.034 154.444L145.155 158.122Z" fill="#263238"/>
<path d="M187.824 196.562L187.323 205.613C187.323 205.613 196.352 209.163 196.418 210.841L178.84 210.495L179.052 196.367L187.824 196.562Z" fill="#919191"/>
<path d="M181.905 204.743C181.735 204.791 181.588 204.899 181.493 205.049C181.398 205.198 181.362 205.377 181.392 205.552C181.432 205.724 181.538 205.874 181.687 205.97C181.836 206.065 182.016 206.099 182.189 206.064C182.373 206.018 182.533 205.904 182.636 205.744C182.74 205.585 182.779 205.393 182.747 205.206C182.685 205.032 182.558 204.889 182.393 204.806C182.228 204.723 182.037 204.706 181.861 204.76" fill="white"/>
<path d="M178.841 210.495L178.919 209.074L195.745 209.938C195.745 209.938 196.519 210.294 196.419 210.84L178.841 210.495Z" fill="white"/>
<path d="M187.607 205.529C187.607 205.613 187.173 205.641 186.749 205.908C186.326 206.176 186.086 206.532 186.008 206.499C185.93 206.465 186.069 205.969 186.593 205.657C187.117 205.345 187.63 205.451 187.607 205.529Z" fill="#263238"/>
<path d="M189.436 206.326C189.436 206.41 189.079 206.549 188.783 206.883C188.488 207.218 188.393 207.625 188.31 207.619C188.226 207.613 188.176 207.123 188.555 206.688C188.934 206.254 189.436 206.242 189.436 206.326Z" fill="#263238"/>
<path d="M190.444 208.555C190.361 208.555 190.255 208.137 190.483 207.675C190.712 207.212 191.119 207.028 191.152 207.118C191.186 207.207 190.935 207.435 190.751 207.82C190.567 208.204 190.528 208.544 190.444 208.555Z" fill="#263238"/>
<path d="M187.513 203.45C187.474 203.528 187.084 203.406 186.599 203.45C186.114 203.495 185.729 203.617 185.69 203.545C185.651 203.473 186.013 203.172 186.588 203.149C187.162 203.127 187.513 203.383 187.513 203.45Z" fill="#263238"/>
<g opacity="0.3">
<path d="M187.724 198.356L187.635 199.967L179.002 199.716L179.019 198.261L187.724 198.356Z" fill="black"/>
</g>
<path d="M187.563 201.628C187.274 201.704 186.971 201.704 186.682 201.628C186.367 201.562 186.061 201.461 185.768 201.327C185.595 201.245 185.428 201.152 185.267 201.048C185.171 200.989 185.083 200.918 185.005 200.837C184.952 200.774 184.92 200.695 184.915 200.613C184.91 200.53 184.932 200.449 184.977 200.38C185.021 200.32 185.078 200.272 185.144 200.24C185.209 200.207 185.282 200.19 185.356 200.19C185.467 200.188 185.579 200.205 185.685 200.24C185.877 200.287 186.064 200.354 186.242 200.441C186.536 200.582 186.805 200.771 187.039 200.998C187.44 201.383 187.596 201.706 187.546 201.723C187.496 201.74 187.312 201.478 186.905 201.165C186.666 200.98 186.404 200.827 186.125 200.708C185.962 200.639 185.795 200.584 185.623 200.541C185.439 200.486 185.283 200.486 185.233 200.541C185.183 200.597 185.233 200.586 185.233 200.642C185.289 200.701 185.353 200.754 185.423 200.798C185.571 200.898 185.726 200.989 185.885 201.071C186.154 201.212 186.436 201.327 186.727 201.416C187.011 201.464 187.29 201.535 187.563 201.628Z" fill="#263238"/>
<path d="M187.451 201.745C187.418 201.745 187.256 201.449 187.234 200.892C187.225 200.565 187.272 200.239 187.373 199.928C187.431 199.734 187.51 199.548 187.607 199.371C187.655 199.257 187.732 199.158 187.83 199.083C187.927 199.008 188.043 198.959 188.164 198.941C188.242 198.945 188.318 198.97 188.382 199.014C188.446 199.059 188.496 199.12 188.527 199.192C188.568 199.296 188.596 199.405 188.61 199.515C188.638 199.711 188.638 199.91 188.61 200.106C188.554 200.435 188.418 200.745 188.215 201.009C187.863 201.461 187.501 201.566 187.496 201.527C187.49 201.488 187.769 201.321 188.053 200.892C188.21 200.642 188.311 200.36 188.348 200.067C188.373 199.899 188.373 199.728 188.348 199.56C188.32 199.371 188.254 199.22 188.187 199.237C188.12 199.254 187.947 199.371 187.875 199.521C187.782 199.67 187.705 199.829 187.646 199.995C187.541 200.276 187.477 200.57 187.457 200.87C187.412 201.41 187.512 201.734 187.451 201.745Z" fill="#263238"/>
<path d="M142.057 158.122C142.057 158.122 143.974 167.976 147.167 168.115C151.069 168.282 179.409 168.673 179.409 168.673L177.687 200.223L190.049 199.928L194.992 168.834C195.541 166.045 195.075 163.151 193.677 160.675L193.577 160.502C192.52 158.764 191.034 157.326 189.261 156.328C187.489 155.33 185.49 154.804 183.455 154.801L159.925 154.444L142.057 158.122Z" fill="#263238"/>
<path d="M166.167 118.563L162.433 143.353L164.958 154.5L142.029 161.249C139.956 158.284 139.878 148.871 139.95 142.21C140.078 130.473 139.56 129.904 140.067 125.786C140.574 121.667 141.438 119.025 143.612 117.727L149.865 114.533C149.865 114.533 153.387 116.763 155.533 116.657C155.533 116.657 158.08 116.763 159.49 115.408C159.49 115.392 164.662 116.952 166.167 118.563Z" fill="#919191"/>
<path d="M166.167 118.563L173.808 129.097L163.402 135.205L164.199 131.376L166.167 118.563Z" fill="#919191"/>
<path d="M184.375 154.951C184.419 154.96 184.465 154.96 184.509 154.951L184.893 154.979C185.105 154.993 185.315 155.019 185.523 155.057C185.807 155.091 186.088 155.143 186.365 155.213C188.14 155.649 189.779 156.518 191.136 157.743C192.068 158.584 192.87 159.559 193.515 160.636C194.254 161.87 194.712 163.251 194.858 164.682C194.992 166.272 194.932 167.872 194.68 169.447C194.452 171.119 194.123 172.791 193.95 174.569C193.554 178.08 193.025 181.413 192.529 184.44C192.033 187.466 191.554 190.18 191.169 192.476C190.784 194.772 190.483 196.617 190.3 197.905C190.216 198.529 190.149 199.019 190.099 199.387C190.099 199.543 190.065 199.666 190.054 199.772C190.049 199.816 190.049 199.861 190.054 199.906C190.072 199.865 190.083 199.822 190.088 199.777C190.088 199.671 190.132 199.549 190.166 199.393L190.417 197.921C190.651 196.617 190.974 194.778 191.375 192.51C191.776 190.241 192.261 187.494 192.796 184.484C193.331 181.475 193.85 178.125 194.245 174.597C194.424 172.841 194.741 171.147 194.964 169.486C195.219 167.889 195.274 166.265 195.126 164.654C194.972 163.187 194.495 161.773 193.727 160.513C193.064 159.418 192.237 158.432 191.275 157.587C189.885 156.357 188.205 155.502 186.393 155.101C185.73 154.96 185.051 154.91 184.375 154.951Z" fill="#455A64"/>
<path d="M175.591 147.299C175.591 147.299 166.746 150.152 159.869 152.644C158.701 153.068 157.447 153.196 156.218 153.017C154.988 152.838 153.823 152.357 152.824 151.618C151.546 150.676 150.6 149.353 150.121 147.839L145.412 133.003L153.276 130.25L158.531 143.587L178.094 141.018" fill="#FFBE9D"/>
<path d="M187.29 144.239L187.362 143.537C187.314 143.019 187.099 142.53 186.749 142.144C186.56 141.933 186.333 141.759 186.08 141.631L183.767 140.422C183.424 140.247 183.034 140.184 182.653 140.243L177.91 141.051L172.465 141.765L173.579 147.973L176.099 147.137C176.099 147.137 177.921 148.146 179.047 147.907C179.047 147.907 180.089 148.603 180.518 148.09C180.518 148.09 181.449 148.893 181.8 148.843C182.151 148.793 182.842 148.386 182.814 148.146L182.787 147.823C182.965 147.921 183.167 147.968 183.37 147.959C183.574 147.95 183.771 147.886 183.94 147.773C184.181 147.586 184.365 147.335 184.47 147.048C184.904 147.003 185.314 146.826 185.646 146.541C185.865 146.22 186.011 145.855 186.075 145.471C186.075 145.471 187.117 144.964 187.29 144.239Z" fill="#FFBE9D"/>
<path d="M183.79 141.993C183.757 141.993 183.701 142.25 183.818 142.64C183.991 143.134 184.277 143.581 184.654 143.944C185.072 144.373 185.462 144.724 185.702 145.014C185.942 145.304 186.07 145.504 186.109 145.488C186.148 145.471 186.109 145.226 185.864 144.891C185.568 144.478 185.234 144.093 184.866 143.743C184.518 143.401 184.228 143.003 184.008 142.567C183.857 142.233 183.84 141.993 183.79 141.993Z" fill="#EB996E"/>
<path d="M182.887 144.473C183.153 145.47 183.729 146.356 184.531 147.003C184.326 146.541 184.064 146.107 183.751 145.71C183.3 145.019 182.965 144.434 182.887 144.473Z" fill="#EB996E"/>
<path d="M181.678 146.112C181.611 146.156 181.806 146.558 182.118 147.015C182.43 147.472 182.731 147.806 182.798 147.756C182.865 147.706 182.664 147.305 182.358 146.853C182.051 146.402 181.745 146.067 181.678 146.112Z" fill="#EB996E"/>
<path d="M181.901 145.46C181.901 145.493 182.023 145.499 182.168 145.409C182.263 145.346 182.343 145.264 182.403 145.168C182.464 145.072 182.503 144.964 182.519 144.852C182.539 144.742 182.534 144.629 182.505 144.521C182.476 144.414 182.424 144.313 182.352 144.228C182.246 144.1 182.14 144.066 182.112 144.094C182.085 144.122 182.296 144.434 182.235 144.807C182.174 145.181 181.867 145.387 181.901 145.46Z" fill="#EB996E"/>
<path d="M180.58 147.126C180.58 147.16 180.68 147.165 180.803 147.126C180.881 147.08 180.949 147.018 181.003 146.944C181.056 146.87 181.094 146.786 181.115 146.697C181.149 146.6 181.153 146.495 181.127 146.395C181.1 146.295 181.043 146.206 180.964 146.14C180.819 146.04 180.708 146.106 180.719 146.14C180.781 146.198 180.824 146.272 180.844 146.355C180.863 146.437 180.859 146.523 180.83 146.602C180.769 146.887 180.546 147.054 180.58 147.126Z" fill="#EB996E"/>
<path d="M182.67 143.687C182.67 143.721 182.792 143.749 182.96 143.687C183.071 143.633 183.167 143.551 183.237 143.449C183.307 143.347 183.35 143.229 183.362 143.106C183.373 142.982 183.352 142.858 183.301 142.745C183.25 142.632 183.171 142.534 183.071 142.461C182.921 142.355 182.798 142.366 182.792 142.4C182.787 142.433 183.105 142.684 183.071 143.08C183.038 143.475 182.648 143.62 182.67 143.687Z" fill="#EB996E"/>
<path d="M145.372 119.739C147.167 118.959 149.379 119.739 150.678 121.099C151.977 122.459 152.573 124.236 153.13 125.964C153.688 127.692 155.014 131.019 155.555 132.686L145.361 137.05C144.492 134.698 143.682 132.325 142.931 129.932C142.296 127.926 141.705 125.764 142.441 123.768" fill="#919191"/>
<path d="M142.441 123.768C142.395 123.845 142.36 123.928 142.335 124.014C142.247 124.254 142.181 124.502 142.14 124.755C141.981 125.702 142.005 126.671 142.213 127.608C142.524 129.036 142.936 130.44 143.444 131.811C144.002 133.405 144.559 135.183 145.222 137.094L145.272 137.234L145.417 137.172L152.596 134.107L155.616 132.814L155.739 132.758L155.7 132.647C154.875 130.217 153.956 127.993 153.264 125.959C152.962 124.973 152.589 124.01 152.15 123.077C151.756 122.245 151.216 121.49 150.556 120.848C149.546 119.896 148.209 119.369 146.822 119.377C146.442 119.388 146.067 119.456 145.707 119.577C145.586 119.619 145.468 119.672 145.356 119.733C145.826 119.577 146.316 119.491 146.811 119.477C148.155 119.506 149.439 120.042 150.405 120.976C151.035 121.603 151.548 122.338 151.921 123.144C152.344 124.073 152.702 125.03 152.991 126.009C153.666 128.077 154.585 130.311 155.393 132.725L155.477 132.557L152.451 133.85L145.283 136.927L145.479 137.005C144.821 135.093 144.208 133.327 143.656 131.738C143.137 130.38 142.707 128.989 142.369 127.575C142.153 126.662 142.1 125.719 142.213 124.788C142.33 124.114 142.463 123.774 142.441 123.768Z" fill="#263238"/>
<path d="M155.505 148.676C155.538 148.676 155.616 148.118 155.962 147.098C156.174 146.497 156.457 145.923 156.803 145.387C157.245 144.684 157.854 144.1 158.576 143.687H158.548L169.589 142.25L176.277 141.352L179.18 140.951L181.705 140.544L182.82 140.371C183.132 140.316 183.454 140.373 183.728 140.533L185.16 141.224L186.069 141.653C186.172 141.71 186.283 141.753 186.398 141.781C186.302 141.712 186.202 141.651 186.097 141.597L185.211 141.124L183.801 140.388C183.498 140.207 183.141 140.136 182.792 140.187L181.677 140.343L179.152 140.711L176.243 141.09L169.555 141.965L158.531 143.476H158.498C157.743 143.912 157.112 144.533 156.664 145.281C156.321 145.834 156.05 146.428 155.856 147.048C155.733 147.437 155.636 147.834 155.566 148.235C155.53 148.379 155.509 148.527 155.505 148.676Z" fill="#EB996E"/>
<path d="M162.432 142.958C162.509 142.696 162.56 142.427 162.583 142.155C162.678 141.598 162.795 140.851 162.934 139.965C163.252 138.064 163.67 135.534 164.132 132.719C164.595 129.905 165.019 127.391 165.331 125.474C165.47 124.588 165.581 123.847 165.671 123.278C165.728 123.011 165.758 122.738 165.76 122.464C165.668 122.721 165.601 122.986 165.559 123.256L165.13 125.441C164.779 127.285 164.316 129.832 163.843 132.686C163.369 135.539 162.979 138.075 162.728 139.931C162.6 140.862 162.516 141.603 162.466 142.161C162.429 142.424 162.417 142.691 162.432 142.958Z" fill="#263238"/>
<path d="M56.8173 264.958C56.8173 265.041 137.486 265.103 236.97 265.103C336.454 265.103 417.133 265.041 417.133 264.958C417.133 264.874 336.482 264.813 236.959 264.813C137.436 264.813 56.8173 264.88 56.8173 264.958Z" fill="#263238"/>
</svg>
