<svg width="1512" height="590" viewBox="0 0 1512 590" fill="none" xmlns="http://www.w3.org/2000/svg">
<g clip-path="url(#clip0_146_2077)">
<rect width="1512" height="590" fill="#A5A5A5"/>
<path opacity="0.57" d="M1569.72 210.977L1570.63 361.533C1570.63 361.533 1538.94 272.221 1489.91 236.326C1440.88 200.432 1388.95 163.966 1318.88 129.155C1239.21 89.5815 1106.17 52.1907 1106.17 52.1907L895.354 -1C895.354 -1 1234.83 48.0278 1329.86 82.8918C1424.9 117.756 1569.72 210.977 1569.72 210.977Z" fill="#222222" fill-opacity="0.5"/>
<path d="M1140.36 -1L756 0.66978C756 0.66978 1122.02 21.5685 1288.37 84.066C1454.72 146.564 1528.07 217.741 1528.07 217.741V-1H1140.36Z" fill="#222222"/>
<path opacity="0.57" d="M-42.723 380.556L-43.6325 230C-43.6325 230 -11.9386 319.312 37.0929 355.206C86.1242 391.1 138.049 427.567 208.125 462.378C287.787 501.951 420.834 539.342 420.834 539.342L631.646 592.532C631.646 592.532 292.168 543.505 197.136 508.641C102.105 473.777 -42.723 380.556 -42.723 380.556Z" fill="#222222" fill-opacity="0.5"/>
<path d="M386.64 592.532L771 590.863C771 590.863 404.978 569.964 238.627 507.466C72.2773 444.969 -1.07391 373.791 -1.07391 373.791V592.532L386.64 592.532Z" fill="#222222"/>
</g>
<defs>
<clipPath id="clip0_146_2077">
<rect width="1512" height="590" fill="white"/>
</clipPath>
</defs>
</svg>
